#!OML:ASF I:\Actors\actors\Patient Classification 2\Patient 1\Session 1\actor1.ASF
:FULLY-SPECIFIED
:DEGREES
189
root 0.266859 18.0024 5.92888 -0.161829 -29.854 6.24577
lowerback 21.1778 -10.576 9.84299
upperback 2.31393 -11.185 4.0407
thorax -10.1406 -5.56927 2.43135
lowerneck -24.4534 -2.13261 -3.86326
upperneck 20.8844 -0.219563 -5.36324
head 10.8093 -1.15226 -1.36038
rclavicle -4.21423e-014 6.36111e-015
rhumerus -39.6834 -9.20622 -68.1394
rradius 76.5756
rwrist -34.2647
rhand -11.6539 -46.48
rfingers 7.12502
rthumb 14.3905 -75.9612
lclavicle -4.21423e-014 6.36111e-015
lhumerus -3.95423 -26.8477 106.952
lradius 53.1193
lwrist 31.4896
lhand -15.3684 -35.7629
lfingers 7.12502
lthumb 10.8094 -6.06108
rfemur -20.2565 14.1317 2.46666
rtibia 34.2613
rfoot -17.269 5.43785
rtoes -14.957
lfemur -11.1402 25.7288 -22.839
ltibia 38.2889
lfoot -29.3591 7.44796
ltoes -56.8659
190
root 0.257144 18.0059 5.93891 -0.116988 -29.6873 6.19662
lowerback 21.0912 -10.6105 9.83663
upperback 2.24344 -11.2373 4.05482
thorax -10.1733 -5.59464 2.46207
lowerneck -24.4941 -2.08406 -3.85204
upperneck 20.7478 -0.142482 -5.43031
head 10.7676 -1.12167 -1.37219
rclavicle 1.19271e-013 -3.65764e-014
rhumerus -39.9109 -8.61182 -68.3251
rradius 76.6451
rwrist -34.5749
rhand -11.6116 -46.3985
rfingers 7.12502
rthumb 14.4313 -75.8768
lclavicle 1.19271e-013 -3.65764e-014
lhumerus -4.16985 -26.9291 106.99
lradius 53.2068
lwrist 32.0155
lhand -15.2948 -36.1458
lfingers 7.12502
lthumb 10.8804 -6.44771
rfemur -20.1401 14.0094 2.54115
rtibia 34.2135
rfoot -17.2804 5.45502
rtoes -14.4813
lfemur -11.0599 25.5737 -22.7794
ltibia 38.1572
lfoot -29.2865 7.4857
ltoes -56.9034
191
root 0.245056 18.0105 5.94844 -0.081905 -29.5498 6.13055
lowerback 21.019 -10.632 9.80728
upperback 2.16909 -11.2759 4.07032
thorax -10.2127 -5.6128 2.50417
lowerneck -24.5432 -2.06158 -3.93977
upperneck 20.6996 -0.087328 -5.39154
head 10.7601 -1.09798 -1.3348
rclavicle -1.59028e-014 1.74931e-014
rhumerus -40.2053 -8.15209 -68.4986
rradius 76.7259
rwrist -34.6432
rhand -11.5532 -46.3184
rfingers 7.12502
rthumb 14.4876 -75.7927
lclavicle -1.59028e-014 1.74931e-014
lhumerus -4.4459 -26.9705 107.04
lradius 53.3473
lwrist 32.5283
lhand -15.4704 -36.4455
lfingers 7.12502
lthumb 10.711 -6.73856
rfemur -19.9852 13.9333 2.64652
rtibia 34.1183
rfoot -17.3046 5.39976
rtoes -14.6034
lfemur -10.946 25.4205 -22.6892
ltibia 38.0124
lfoot -29.2269 7.56317
ltoes -56.9816
192
root 0.232045 18.0171 5.95699 -0.0603284 -29.4661 6.06327
lowerback 20.9659 -10.6029 9.75811
upperback 2.09896 -11.2513 4.08493
thorax -10.2507 -5.60072 2.53651
lowerneck -24.6905 -2.06368 -4.0361
upperneck 20.7538 -0.048885 -5.36081
head 10.8082 -1.08798 -1.30517
rclavicle -1.145e-013 3.02153e-014
rhumerus -40.5478 -7.89606 -68.6165
rradius 76.8423
rwrist -34.7299
rhand -11.6384 -46.3324
rfingers 7.12502
rthumb 14.4054 -75.8125
lclavicle -1.145e-013 3.02153e-014
lhumerus -4.7421 -26.9672 107.133
lradius 53.5895
lwrist 32.6633
lhand -15.5266 -36.0386
lfingers 7.12502
lthumb 10.6569 -6.32887
rfemur -19.814 13.8776 2.76435
rtibia 33.9845
rfoot -17.3069 5.31603
rtoes -15.0862
lfemur -10.804 25.3732 -22.565
ltibia 37.8585
lfoot -29.1526 7.5444
ltoes -57.0188
193
root 0.220817 18.0253 5.96625 -0.0554665 -29.3985 6.00792
lowerback 20.9246 -10.565 9.73554
upperback 2.02952 -11.2102 4.06467
thorax -10.3061 -5.58222 2.51448
lowerneck -24.8675 -2.06085 -3.99071
upperneck 20.8089 -0.0146413 -5.48434
head 10.8621 -1.08913 -1.35606
rclavicle -5.00937e-014 -3.33958e-014
rhumerus -40.8954 -7.87744 -68.748
rradius 76.9459
rwrist -34.8762
rhand -11.684 -46.2531
rfingers 7.12502
rthumb 14.3615 -75.7363
lclavicle -5.00937e-014 -3.33958e-014
lhumerus -5.03549 -26.8128 107.281
lradius 53.8426
lwrist 32.3618
lhand -15.4012 -35.279
lfingers 7.12502
lthumb 10.7777 -5.5755
rfemur -19.6225 13.8074 2.86436
rtibia 33.822
rfoot -17.3026 5.27283
rtoes -15.3504
lfemur -10.6416 25.3871 -22.4373
ltibia 37.6936
lfoot -29.0654 7.41801
ltoes -56.9548
194
root 0.209903 18.0337 5.97715 -0.0311329 -29.309 5.94521
lowerback 20.775 -10.571 9.75946
upperback 1.98686 -11.2378 3.99436
thorax -10.2958 -5.59943 2.41517
lowerneck -24.9919 -2.03113 -3.84814
upperneck 20.7988 0.0169304 -5.61918
head 10.8814 -1.08206 -1.42514
rclavicle -2.38542e-015 -2.38542e-014
rhumerus -41.1969 -7.99872 -68.9729
rradius 77.0373
rwrist -35.0082
rhand -11.4952 -46.1051
rfingers 7.12502
rthumb 14.5434 -75.5753
lclavicle -2.38542e-015 -2.38542e-014
lhumerus -5.31149 -26.5793 107.343
lradius 54.1294
lwrist 32.1068
lhand -15.375 -34.7169
lfingers 7.12502
lthumb 10.8031 -5.01474
rfemur -19.4213 13.7414 2.96386
rtibia 33.6386
rfoot -17.3298 5.22583
rtoes -15.3038
lfemur -10.4978 25.3798 -22.3286
ltibia 37.527
lfoot -28.9414 7.43295
ltoes -57.0257
195
root 0.197953 18.0402 5.98667 0.0415491 -29.1864 5.83829
lowerback 20.5967 -10.5877 9.78904
upperback 1.91396 -11.2765 3.96222
thorax -10.298 -5.62202 2.35711
lowerneck -25.0739 -2.0104 -3.84636
upperneck 20.8305 0.0524819 -5.61651
head 10.9086 -1.06742 -1.42057
rclavicle -3.18055e-015 -1.59028e-014
rhumerus -41.5386 -8.08783 -69.1354
rradius 77.199
rwrist -35.2588
rhand -11.4758 -46.1131
rfingers 7.12502
rthumb 14.5621 -75.5819
lclavicle -3.18055e-015 -1.59028e-014
lhumerus -5.64089 -26.3458 107.407
lradius 54.4789
lwrist 31.9697
lhand -15.2736 -34.3675
lfingers 7.12502
lthumb 10.9009 -4.67042
rfemur -19.2387 13.6476 3.10739
rtibia 33.4459
rfoot -17.3392 5.19968
rtoes -15.0799
lfemur -10.3911 25.3252 -22.1971
ltibia 37.3595
lfoot -28.8078 7.50853
ltoes -57.1584
